<?xml version="1.0" encoding="utf-8"?>
<!-- Generator: Adobe Illustrator 22.1.0, SVG Export Plug-In . SVG Version: 6.00 Build 0)  -->
<svg version="1.1" xmlns="http://www.w3.org/2000/svg" xmlns:xlink="http://www.w3.org/1999/xlink" x="0px" y="0px"
	 viewBox="0 0 239.7 293.2" style="enable-background:new 0 0 239.7 293.2;" xml:space="preserve">
<style type="text/css">
	.st0{fill:none;stroke:#999999;stroke-width:0.25;stroke-miterlimit:10;}
	.st1{fill:#F7F9FA;}
	.st2{fill:#3C2F54;}
	.st3{fill:#EC1E27;}
	.st4{fill:#21B5AD;}
	.st5{fill:#BE1E2D;}
	.st6{fill:#C99C28;}
	.st7{fill:none;stroke:#C99C28;stroke-miterlimit:10;}
	.st8{fill:#574672;}
	.st9{fill:#FFFFFF;}
	.st10{fill:#36284A;}
	.st11{fill:#BE1E2D;stroke:#BE1E2D;stroke-width:12;stroke-miterlimit:10;}
	.st12{fill:#666666;}
	.st13{fill:#333333;}
	.st14{fill:#999999;}
	.st15{fill:#B3B3B3;}
	.st16{fill:#E5AD23;}
	.st17{fill:#DD5D36;}
	.st18{fill:#3BB7B3;}
	.st19{fill:#36C972;}
	.st20{fill:#6D3EFF;}
	.st21{fill:#37DDD1;}
	.st22{fill:#46E888;}
	.st23{fill:#FFCE00;}
	.st24{fill:#FF8017;}
	.st25{fill:#FF001F;}
	.st26{fill:#D30F22;}
	.st27{fill:#1EAD58;}
	.st28{clip-path:url(#SVGID_2_);fill:#3C2F54;}
	.st29{clip-path:url(#SVGID_2_);}
	.st30{clip-path:url(#SVGID_4_);fill:#3BB7B3;}
	.st31{clip-path:url(#SVGID_6_);fill:#46E888;}
	.st32{clip-path:url(#SVGID_6_);fill:#36C972;}
	.st33{clip-path:url(#SVGID_6_);}
	.st34{clip-path:url(#SVGID_8_);fill:#E5AD23;}
	.st35{clip-path:url(#SVGID_10_);fill:#DD5D36;}
	.st36{clip-path:url(#SVGID_12_);fill:#FF001F;}
	.st37{clip-path:url(#SVGID_12_);fill:#BE1E2D;}
	.st38{clip-path:url(#SVGID_12_);}
	.st39{clip-path:url(#SVGID_14_);fill:#6D3EFF;}
	.st40{clip-path:url(#SVGID_14_);}
	.st41{clip-path:url(#SVGID_16_);fill:#6D3EFF;}
	.st42{clip-path:url(#SVGID_16_);}
	.st43{clip-path:url(#SVGID_18_);fill:#37DDD1;}
	.st44{clip-path:url(#SVGID_20_);fill:#36C972;}
	.st45{clip-path:url(#SVGID_20_);fill:#46E888;}
	.st46{clip-path:url(#SVGID_20_);}
	.st47{clip-path:url(#SVGID_22_);fill:#FFCE00;}
	.st48{clip-path:url(#SVGID_24_);fill:#FF8017;}
	.st49{clip-path:url(#SVGID_26_);fill:#BE1E2D;}
	.st50{clip-path:url(#SVGID_26_);fill:#FF001F;}
	.st51{clip-path:url(#SVGID_26_);}
	.st52{clip-path:url(#SVGID_44_);}
	.st53{clip-path:url(#SVGID_46_);fill:#3BB7B3;}
	.st54{clip-path:url(#SVGID_48_);fill:#46E888;}
	.st55{clip-path:url(#SVGID_48_);}
	.st56{clip-path:url(#SVGID_50_);fill:#E5AD23;}
	.st57{clip-path:url(#SVGID_52_);}
	.st58{opacity:0.53;clip-path:url(#SVGID_54_);}
	.st59{opacity:0.53;}
	.st60{clip-path:url(#SVGID_54_);}
	.st61{clip-path:url(#SVGID_60_);fill:#3BB7B3;}
	.st62{opacity:0.61;clip-path:url(#SVGID_60_);}
	.st63{opacity:0.61;}
	.st64{clip-path:url(#SVGID_60_);}
	.st65{clip-path:url(#SVGID_60_);fill:none;}
	.st66{clip-path:url(#SVGID_60_);fill:#37DDD1;}
	.st67{fill:none;}
	.st68{opacity:0.82;}
	.st69{clip-path:url(#SVGID_68_);}
	.st70{clip-path:url(#SVGID_70_);}
	.st71{clip-path:url(#SVGID_72_);fill:#37DDD1;}
	.st72{clip-path:url(#SVGID_74_);fill:#36C972;}
	.st73{clip-path:url(#SVGID_74_);}
	.st74{clip-path:url(#SVGID_76_);fill:#E5AD23;}
	.st75{clip-path:url(#SVGID_76_);}
	.st76{clip-path:url(#SVGID_78_);fill:#FFCE00;}
	.st77{clip-path:url(#SVGID_80_);}
	.st78{fill:none;stroke:#EC1E27;stroke-width:3;stroke-linecap:round;stroke-miterlimit:10;}
	.st79{fill:#86828E;}
	.st80{fill:none;stroke:#FFFFFF;stroke-width:2;stroke-linecap:round;stroke-linejoin:round;stroke-miterlimit:10;}
	.st81{fill:none;stroke:#EC1E27;stroke-width:4;stroke-linecap:round;stroke-miterlimit:10;}
	.st82{fill:none;stroke:#EC1E27;stroke-width:2;stroke-linecap:round;stroke-miterlimit:10;}
	.st83{fill:none;stroke:#EC1E27;stroke-width:2;stroke-linecap:round;stroke-linejoin:round;stroke-miterlimit:10;}
	.st84{fill:#0066B2;}
	.st85{fill:#F9A533;}
	.st86{fill:#C0C2C4;}
	.st87{fill:#AA1A2B;}
	.st88{opacity:0.23;fill:#D0D9D9;}
	.st89{fill-rule:evenodd;clip-rule:evenodd;fill:#462F4E;}
	.st90{fill-rule:evenodd;clip-rule:evenodd;fill:#D30F22;}
	.st91{fill-rule:evenodd;clip-rule:evenodd;fill:#BE1E2D;}
	.st92{fill-rule:evenodd;clip-rule:evenodd;fill:#FF2630;}
	.st93{fill-rule:evenodd;clip-rule:evenodd;fill:#EC1E27;}
	.st94{fill-rule:evenodd;clip-rule:evenodd;fill:#6D3EFF;}
	.st95{fill-rule:evenodd;clip-rule:evenodd;fill:#FFFFFF;}
	.st96{clip-path:url(#SVGID_84_);}
	.st97{clip-path:url(#SVGID_86_);fill:#3C2F54;}
	.st98{clip-path:url(#SVGID_88_);}
	.st99{clip-path:url(#SVGID_90_);fill:#3C2F54;}
	.st100{clip-path:url(#SVGID_92_);}
	.st101{clip-path:url(#SVGID_94_);fill:#3C2F54;}
	.st102{clip-path:url(#SVGID_96_);}
	.st103{clip-path:url(#SVGID_98_);fill:#3C2F54;}
	.st104{clip-path:url(#SVGID_100_);}
	.st105{clip-path:url(#SVGID_102_);fill:#3C2F54;}
	.st106{clip-path:url(#SVGID_104_);}
	.st107{clip-path:url(#SVGID_106_);fill:#3C2F54;}
	.st108{clip-path:url(#SVGID_108_);}
	.st109{clip-path:url(#SVGID_110_);fill:#3C2F54;}
	.st110{clip-path:url(#SVGID_112_);}
	.st111{clip-path:url(#SVGID_114_);fill:#3C2F54;}
	.st112{clip-path:url(#SVGID_116_);}
	.st113{clip-path:url(#SVGID_118_);fill:#3C2F54;}
	.st114{clip-path:url(#SVGID_120_);}
	.st115{clip-path:url(#SVGID_122_);fill:#3C2F54;}
	.st116{clip-path:url(#SVGID_124_);}
	.st117{clip-path:url(#SVGID_126_);fill:#3C2F54;}
	.st118{clip-path:url(#SVGID_128_);}
	.st119{clip-path:url(#SVGID_130_);fill:#3C2F54;}
	.st120{fill-rule:evenodd;clip-rule:evenodd;fill:#958EA2;}
	.st121{fill-rule:evenodd;clip-rule:evenodd;fill:#E5AD23;}
</style>
<g id="Layer_2">
</g>
<g id="Layer_1">
	<g>
		<defs>
			<rect id="SVGID_5_" x="-561.5" y="-941.5" width="640" height="540"/>
		</defs>
		<clipPath id="SVGID_2_">
			<use xlink:href="#SVGID_5_"  style="overflow:visible;"/>
		</clipPath>
		<path style="clip-path:url(#SVGID_2_);fill:#36C972;" d="M146.8-713.2C58.9-870.4-51.5-986.1-181.4-1057
			c-129.6-70.7-289.5-106.6-475.3-106.6c-96.3,0-204.4,22.2-321.4,66.1c-118.3,44.4-203.1,98.7-252.1,161.2
			c-103.5,132.2-184.3,285.1-221.4,449.6c-38.5,170.5-16.3,333.8,33.4,499.1c15,49.8,33.5,98.7,56.8,145.3
			c63.1,125.8,163,228.2,281.3,303.3c138.7,88.1,277.2,132.8,411.5,132.8c303.5,0,614-152,766.5-421.1
			c92.5-163.1,122-344.9,122-530.3c0-55.8-6.7-119.9-20-190.4C186.6-619.3,168.7-674.9,146.8-713.2z M-242-81.8
			c-44.5,89.7-85.3,176.3-169.1,236.2c-82.8,59.1-191.4,80.7-290.2,55.2c-152.5-39.4-239.4-172.4-270.8-318.7
			c-19.1-89.2-23.2-126.2-23.2-141.5c0-109.5-11.5-232.1,30.6-335.9c37.8-93.1,118-168.8,213.1-201.2
			c63.7-21.7,133.5-23.8,198.7-7.8c33.6,8.2,65.4,21.4,95.3,38.6c23.5,13.4,58.8,22.1,77.8,41c50.2,50.3,101.4,94.1,127.7,164.5
			c26.6,71,40.1,144.1,40.1,217.4C-212-143-235.1-95.8-242-81.8z"/>
	</g>
	<g>
		<defs>
			<rect id="SVGID_7_" x="78.5" y="-941.5" width="640" height="540"/>
		</defs>
		<clipPath id="SVGID_4_">
			<use xlink:href="#SVGID_7_"  style="overflow:visible;"/>
		</clipPath>
		<path style="clip-path:url(#SVGID_4_);fill:#E5AD23;" d="M1110.9-517c-43.5-92.9-128.5-147.2-216-193.7
			c-114.3-60.8-235.1-93.6-359.1-127.6C481.8-853,431.6-871.4,386.3-893c-64.9-27.5-97.8-59.8-97.8-96.1c0-30.2,20.9-54.2,63.8-73.3
			c101.5-45.1,242.6-38.8,343.1,8c80.5,37.5,114.2,134.9,212.1,136.5c95.1,1.6,156.9-79,156.9-169c0-51.8-20.2-98.9-60-139.9
			c-37.9-39-87.3-76.6-145.6-111.1c-95.2-56.3-206.9-63.6-315.5-60.4c-103.5,3-206.5,20.1-305.4,50.8
			c-91.5,28.4-162.1,74.3-221.1,151.5c-44.3,58.1-66.8,117.8-66.8,177.6c0,96.7,26.4,179.6,78.4,246.2
			C79.5-706.5,146-652.8,226.6-612.6c162.2,74.8,346.4,93.1,499,189.5c25.5,16.1,51.3,36.2,59.7,65.1
			c33,113.6-233.9,109.2-291.2,109.2c-55.9,0-111.6-13.7-165.6-40.7C275-316.2,238-355.1,214.7-410.3c-10.3-17.8-28.4-33.7-53.8-47
			c-25.2-13.1-51.3-19.8-77.5-19.8c-49.6,0-90.6,14.6-121.7,43.3c-31.5,29.2-47.5,68.2-47.5,116.2c0,98.3,75.7,181.7,148.7,239.2
			C139.1-18.1,233,17.8,328.1,35C417,51,507.8,51.9,597.8,47.9c84.2-3.7,165.7-9.4,245.4-39c183.5-68.3,344.2-280.6,284.1-482.4
			C1122.8-488.9,1117.3-503.3,1110.9-517z"/>
	</g>
	<g>
		<rect x="-0.3" y="18.2" class="st2" width="240" height="275"/>
		<g>
			<path class="st89" d="M11.3,293.2l12.1-20.7c2.8-5.6,6.3-15.4,9.3-24c1.9-5.4,3.5-10.1,4.6-12.6c2.9-6.7,15.5-41.3,16.2-47.2
				c1.3-7.2-0.2-13.5-4.2-18.7c-4-5.2-10-8.3-17.9-9.3c-8.9-1.1-15.4,0-19.9,3.3c-4,3-7.9,7.7-11.6,14.2v115H11.3z"/>
			<path class="st89" d="M114.1,278.4l-12.7-21.7c-3.9-7.9-8.4-16.1-13.4-24.2c-0.8-1.3-1.5-2.4-2.3-3.6l-0.7-1l0,0
				c-1.3-2.6-6.1-3.9-7.9-4.1c-2.7-0.3-6,0.8-8.3,2.6c-5.1,4.1-7.4,12.5-7.8,19c0,0.5,0,1.1,0,1.6c0,7,2.7,13.9,5.4,20
				c1.1,2.6,2.4,5.2,3.7,7.7l0.8,1.6c1.5,1.8,2.7,3.6,3.7,5.4l6.4,11.5h38.9C117.9,287.8,115.8,281.9,114.1,278.4z"/>
			<path class="st89" d="M140.9,256.5c2.3,1.8,5.5,2.9,8.3,2.6c1.8-0.2,6.6-1.5,7.9-4.1l0,0l0.7-1c0.8-1.2,1.5-2.4,2.3-3.6
				c5-8.2,9.5-16.3,13.4-24.2l12.7-21.7c1.9-3.7,4.1-10.1,6.1-15.8c1.2-3.5,2.3-6.6,3-8.3c1.9-4.4,10.2-27.1,10.7-31
				c0.8-4.7-0.1-8.8-2.8-12.2c-2.6-3.4-6.6-5.4-11.8-6.1c-5.8-0.7-10.1,0-13.1,2.2c-2.7,2-5.3,5.3-7.8,9.7
				c-1.5,4.9-12.1,32.9-17.3,46.4l-6.5,11.9c-1,1.8-2.2,3.6-3.7,5.4l-0.8,1.6c-1.3,2.5-2.6,5.1-3.7,7.7c-2.6,6-5.4,13-5.4,20
				c0,0.5,0,1.1,0,1.6C133.5,244,135.8,252.4,140.9,256.5z"/>
			<path class="st89" d="M1.8,98.8c1.8-0.2,6.6-1.5,7.9-4.1l0,0l0.7-1c0.8-1.2,1.5-2.4,2.3-3.6c5-8.2,9.5-16.3,13.4-24.2l12.7-21.7
				c1.9-3.7,4.1-10.1,6.1-15.8c1.2-3.5,2.3-6.6,3-8.3c0.2-0.4,0.4-0.9,0.6-1.5H9.8C8.3,22.5,7,26.1,5.8,29L0,39.6v59.2
				C0.6,98.8,1.2,98.9,1.8,98.8z"/>
			<path class="st89" d="M58.8,113.1c1.5,1.8,2.7,3.6,3.7,5.4l6.5,11.9c5.3,13.5,15.8,41.5,17.3,46.4c2.5,4.4,5.1,7.7,7.8,9.7
				c3,2.2,7.2,2.9,13.1,2.2c5.2-0.7,9.1-2.7,11.8-6.1c2.7-3.4,3.6-7.6,2.8-12.2c-0.5-3.9-8.7-26.6-10.7-31c-0.7-1.6-1.8-4.7-3-8.3
				c-2-5.7-4.3-12.1-6.1-15.8L89.3,93.6C85.5,85.7,81,77.5,76,69.4c-0.8-1.3-1.5-2.4-2.3-3.6l-0.7-1l0,0c-1.3-2.6-6.1-3.9-7.9-4.1
				c-2.7-0.3-6,0.8-8.3,2.6c-5.1,4.1-7.4,12.5-7.8,19c0,0.5,0,1.1,0,1.6c0,7,2.7,13.9,5.4,20c1.1,2.6,2.4,5.2,3.7,7.7L58.8,113.1z"
				/>
			<path class="st89" d="M227.5,208.1c-5.1,4.1-7.4,12.5-7.8,19c0,0.5,0,1.1,0,1.6c0,7,2.7,13.9,5.4,20c1.1,2.6,2.4,5.2,3.7,7.7
				l0.8,1.6c1.5,1.8,2.7,3.6,3.7,5.4l6.3,11.5v-68.3c-1.5-0.6-3-0.9-3.8-1C233,205.2,229.8,206.2,227.5,208.1z"/>
			<path class="st89" d="M227.5,41.3c-5.1,4.1-7.4,12.5-7.8,19c0,0.5,0,1.1,0,1.6c0,7,2.7,13.9,5.4,20c1.1,2.6,2.4,5.2,3.7,7.7
				l0.8,1.6c1.5,1.8,2.7,3.6,3.7,5.4l6.3,11.5V39.6c-1.5-0.6-3-0.9-3.8-1C233,38.4,229.8,39.4,227.5,41.3z"/>
			<path class="st89" d="M142.1,94.6L142.1,94.6l1.6-1.4c1.8-1.7,3.7-3.4,5.6-5.3C161.6,76,173,63.8,183.2,51.8l31.6-32
				c0.5-0.5,0.9-1.1,1.4-1.7h-88.8c-0.1,0.2-0.3,0.3-0.4,0.5c-7.2,9.3-15,20.1-18.1,32.2c-0.2,0.9-0.4,1.9-0.6,2.8
				c-2.2,11.4-1.9,26.9,5.1,36.3c3.1,4.2,8.3,7.4,13.2,8.2c0.8,0.1,2,0.2,3.3,0.2h0C133.9,98.4,139.6,97.6,142.1,94.6z"/>
		</g>
		<path class="st90" d="M134.6,67.5c33.9,3.8,64.2,33.9,79.5,64.3c2-12.6-0.7-25.2-12.8-35.9C174.5,72.1,129,54.7,93.8,67.6
			C79.9,72.7,67.1,84.5,57,97.2c0,0,0,0,0,0C72.4,84,107,64.4,134.6,67.5z"/>
		<path class="st91" d="M90.7,237.7c27.6,1.1,49.7-10.8,71.8-24.1c2.4-1.4,5.3-3,8.4-4.8c22.8-12.7,61-33.9,46.7-69.5
			c-13.3-32.9-46.2-68.6-83.5-72.8C106.5,63.5,71.9,83,56.5,96c-21.6,18.3-40.3,53.2-27.9,96.3c1.9,6.5,4.6,12.5,8.2,17.8
			C48,226.7,67.1,236.7,90.7,237.7z"/>
		<path class="st92" d="M85.6,145c1.9,0.6,3.7,0.9,5.6,0.9c5.8,0,11.3-2.9,15.2-8.2c4.7-6.3,5.4-13.3,5.7-20.6
			c0-0.8,0.1-1.7,0.2-2.7c0.6-7.3,1.6-19.6-9.3-21.8c-10-2.1-23.9,0-30.8,8.1c-5.1,6-6,17.1-5.3,22.7
			C67.8,131.3,73.2,141.2,85.6,145z"/>
		<path class="st93" d="M30,37.7c-2.3,3.8-2.8,8.6-1.3,12.9c0.5,1.3,2.4,0.7,1.9-0.6c-1.4-3.8-1-7.8,1.1-11.2
			C32.4,37.7,30.7,36.6,30,37.7z"/>
		<path class="st93" d="M23,45.1c-0.5,3.4-0.1,6.7,1.1,9.7c0.5,1.3,2.1,0.1,1.6-1.2c-1-2.5-1.4-5.2-1-7.9
			C24.9,44.3,23.2,43.7,23,45.1z"/>
		<path class="st94" d="M83.4,39.8v3.9c0.6,4.1,3.1,8.2,6,10.8c2.3,2,5.5,3.3,7.5,5.6c2.7,3.2,2.4,8.7,0.5,12.4
			C95,77.2,88.3,79,86.2,83.6c4.6,2.4,10.9-4.5,14.8-6.1c13.5-5.6,29.5-6.8,43.9-9c11.5-1.7,23.7-5,34.5-9.4
			c7-2.9,11.5-8.8,12.6-16.3c0.9-6.4-4.7-16.7-8.9-21.2c-5.4-5.7-12.8-10.9-20.4-13.2c-7.4-2.3-14.8-3.7-22.5-3.5
			c-2.9,0.1-5.7,0.9-8.4,1.7c-2.9,0.9-5.8,1.5-8.8,2.1c0.7,0.1-6.4,1.6-10.6,3C100.6,15.7,85.3,26.1,83.4,39.8z"/>
		<path class="st95" d="M154.3,37.3c0,3.9-1.7,7.6-4.8,10.1c-1.1,0.9,0.2,2.4,1.3,1.5c3.5-2.9,5.6-7.3,5.5-11.7
			C156.3,35.9,154.2,35.9,154.3,37.3z"/>
		<path class="st95" d="M156.6,45.6c-1.1,2.6-2.8,4.7-4.9,6.3c-1.1,0.8-0.4,2.6,0.7,1.8c2.7-1.9,4.7-4.6,6-7.7
			C158.9,44.6,157.1,44.3,156.6,45.6z"/>
		<g>
			<defs>
				<path id="SVGID_83_" d="M116.3,184.4c-0.4-0.2-0.9-0.1-1.2,0.3c-0.2,0.2-0.4,0.5-0.5,0.8c-0.2,0.7-0.1,1.4,0.2,2.1
					c0.7,1.8,2.2,3.1,3.7,3.6c0.4,0.1,0.8,0.2,1.2,0.2c0.5,0,1.5,0.1,1.8-0.6c0.2-0.6-0.2-1.3-0.5-1.8c-0.6-1-1.4-1.8-2.2-2.5
					c-0.4-0.3-0.8-0.6-1.2-0.9c-0.4-0.3-0.7-0.8-1.2-1C116.5,184.4,116.4,184.4,116.3,184.4"/>
			</defs>
			<clipPath id="SVGID_6_">
				<use xlink:href="#SVGID_83_"  style="overflow:visible;"/>
			</clipPath>
			<g class="st33">
				<defs>
					<rect id="SVGID_85_" x="-960.3" y="-366.2" width="1680" height="1205"/>
				</defs>
				<clipPath id="SVGID_8_">
					<use xlink:href="#SVGID_85_"  style="overflow:visible;"/>
				</clipPath>
				<rect x="109.6" y="179.3" style="clip-path:url(#SVGID_8_);fill:#3C2F54;" width="17.1" height="17.1"/>
			</g>
		</g>
		<g>
			<defs>
				<path id="SVGID_87_" d="M121.7,181.7c1.4,1,2.6,3,4.4,3.6c1.4-0.1,2.1-1.2,3.4-1.5c4.2-1,8.4,0.2,11.8-1.8
					c2.4-1.5,6.6-5.3,0.6-6.8c-4.1-1-8.2-1.3-11-0.2C128,176,125.2,181.4,121.7,181.7"/>
			</defs>
			<clipPath id="SVGID_10_">
				<use xlink:href="#SVGID_87_"  style="overflow:visible;"/>
			</clipPath>
			<g style="clip-path:url(#SVGID_10_);">
				<defs>
					<rect id="SVGID_89_" x="-960.3" y="-366.2" width="1680" height="1205"/>
				</defs>
				<clipPath id="SVGID_12_">
					<use xlink:href="#SVGID_89_"  style="overflow:visible;"/>
				</clipPath>
				<rect x="116.7" y="169.2" style="clip-path:url(#SVGID_12_);fill:#3C2F54;" width="33.2" height="21.1"/>
			</g>
		</g>
		<g>
			<defs>
				<path id="SVGID_91_" d="M124.4,160.2c-0.4-0.2-0.9-0.1-1.2,0.3c-0.2,0.2-0.4,0.5-0.5,0.8c-0.2,0.7-0.1,1.4,0.2,2.1
					c0.7,1.8,2.2,3.1,3.7,3.6c0.4,0.1,0.8,0.2,1.2,0.2c0.5,0,1.5,0.1,1.8-0.6c0.2-0.6-0.2-1.3-0.5-1.8c-0.6-1-1.4-1.8-2.2-2.5
					c-0.4-0.3-0.8-0.6-1.2-0.9c-0.4-0.3-0.7-0.8-1.2-1C124.5,160.2,124.5,160.2,124.4,160.2"/>
			</defs>
			<clipPath id="SVGID_14_">
				<use xlink:href="#SVGID_91_"  style="overflow:visible;"/>
			</clipPath>
			<g class="st40">
				<defs>
					<rect id="SVGID_93_" x="-960.3" y="-366.2" width="1680" height="1205"/>
				</defs>
				<clipPath id="SVGID_16_">
					<use xlink:href="#SVGID_93_"  style="overflow:visible;"/>
				</clipPath>
				<rect x="117.7" y="155.1" style="clip-path:url(#SVGID_16_);fill:#3C2F54;" width="17.1" height="17.1"/>
			</g>
		</g>
		<g>
			<defs>
				<path id="SVGID_95_" d="M127.7,158.5c1.4,1,2.6,3,4.4,3.6c1.4-0.1,2.1-1.2,3.4-1.5c4.2-1,8.4,0.2,11.8-1.8
					c2.4-1.5,6.6-5.3,0.6-6.8c-4.1-1-8.2-1.3-11-0.2C134.1,152.8,131.2,158.2,127.7,158.5"/>
			</defs>
			<clipPath id="SVGID_18_">
				<use xlink:href="#SVGID_95_"  style="overflow:visible;"/>
			</clipPath>
			<g style="clip-path:url(#SVGID_18_);">
				<defs>
					<rect id="SVGID_97_" x="-960.3" y="-366.2" width="1680" height="1205"/>
				</defs>
				<clipPath id="SVGID_20_">
					<use xlink:href="#SVGID_97_"  style="overflow:visible;"/>
				</clipPath>
				<rect x="122.7" y="146" style="clip-path:url(#SVGID_20_);fill:#3C2F54;" width="33.2" height="21.1"/>
			</g>
		</g>
		<g>
			<defs>
				<path id="SVGID_99_" d="M162.8,164.2c-0.4-0.1-0.9-0.1-1.2,0.2c-0.2,0.1-0.4,0.3-0.5,0.4c-0.2,0.4-0.1,0.8,0.2,1.2
					c0.7,1.1,2.2,1.8,3.7,2.1c0.4,0.1,0.8,0.1,1.2,0.1c0.5,0,1.5,0.1,1.8-0.3c0.2-0.3-0.2-0.8-0.5-1c-0.6-0.6-1.4-1-2.2-1.4
					c-0.4-0.2-0.8-0.4-1.2-0.5c-0.4-0.2-0.7-0.4-1.2-0.6C162.9,164.2,162.9,164.2,162.8,164.2"/>
			</defs>
			<clipPath id="SVGID_22_">
				<use xlink:href="#SVGID_99_"  style="overflow:visible;"/>
			</clipPath>
			<g style="clip-path:url(#SVGID_22_);">
				<defs>
					<rect id="SVGID_101_" x="-960.3" y="-366.2" width="1680" height="1205"/>
				</defs>
				<clipPath id="SVGID_24_">
					<use xlink:href="#SVGID_101_"  style="overflow:visible;"/>
				</clipPath>
				<rect x="156.1" y="159.1" style="clip-path:url(#SVGID_24_);fill:#3C2F54;" width="17.1" height="14"/>
			</g>
		</g>
		<g>
			<defs>
				<path id="SVGID_103_" d="M165.1,163.9c1.1,0.9,1.9,2.7,3.2,3.3c1-0.1,1.5-1.1,2.5-1.4c3.1-0.9,6.2,0.2,8.7-1.7
					c1.7-1.3,4.9-4.8,0.4-6.2c-3-0.9-6-1.1-8.2-0.1C169.8,158.7,167.7,163.6,165.1,163.9"/>
			</defs>
			<clipPath id="SVGID_26_">
				<use xlink:href="#SVGID_103_"  style="overflow:visible;"/>
			</clipPath>
			<g class="st51">
				<defs>
					<rect id="SVGID_105_" x="-960.3" y="-366.2" width="1680" height="1205"/>
				</defs>
				<clipPath id="SVGID_28_">
					<use xlink:href="#SVGID_105_"  style="overflow:visible;"/>
				</clipPath>
				<rect x="160.1" y="152.1" style="clip-path:url(#SVGID_28_);fill:#3C2F54;" width="27.2" height="20.1"/>
			</g>
		</g>
		<g>
			<defs>
				<path id="SVGID_107_" d="M167.9,146c-0.4-0.1-0.9-0.1-1.2,0.2c-0.2,0.1-0.4,0.3-0.5,0.4c-0.2,0.4-0.1,0.8,0.2,1.2
					c0.7,1.1,2.2,1.8,3.7,2.1c0.4,0.1,0.8,0.1,1.2,0.1c0.5,0,1.5,0.1,1.8-0.3c0.2-0.3-0.2-0.8-0.5-1c-0.6-0.6-1.4-1-2.2-1.4
					c-0.4-0.2-0.8-0.4-1.2-0.5c-0.4-0.2-0.7-0.4-1.2-0.6C168,146.1,167.9,146,167.9,146"/>
			</defs>
			<clipPath id="SVGID_30_">
				<use xlink:href="#SVGID_107_"  style="overflow:visible;"/>
			</clipPath>
			<g style="clip-path:url(#SVGID_30_);">
				<defs>
					<rect id="SVGID_109_" x="-960.3" y="-366.2" width="1680" height="1205"/>
				</defs>
				<clipPath id="SVGID_32_">
					<use xlink:href="#SVGID_109_"  style="overflow:visible;"/>
				</clipPath>
				<rect x="161.1" y="141" style="clip-path:url(#SVGID_32_);fill:#3C2F54;" width="17.1" height="14"/>
			</g>
		</g>
		<g>
			<defs>
				<path id="SVGID_111_" d="M170.2,144.7c1.1,0.9,1.9,2.7,3.2,3.3c1-0.1,1.5-1.1,2.5-1.4c3.1-0.9,6.2,0.2,8.7-1.7
					c1.7-1.3,4.9-4.8,0.4-6.2c-3-0.9-6-1.1-8.2-0.1C174.8,139.5,172.8,144.4,170.2,144.7"/>
			</defs>
			<clipPath id="SVGID_34_">
				<use xlink:href="#SVGID_111_"  style="overflow:visible;"/>
			</clipPath>
			<g style="clip-path:url(#SVGID_34_);">
				<defs>
					<rect id="SVGID_113_" x="-960.3" y="-366.2" width="1680" height="1205"/>
				</defs>
				<clipPath id="SVGID_36_">
					<use xlink:href="#SVGID_113_"  style="overflow:visible;"/>
				</clipPath>
				<rect x="165.2" y="132.9" style="clip-path:url(#SVGID_36_);fill:#3C2F54;" width="27.2" height="20.1"/>
			</g>
		</g>
		<g>
			<defs>
				<path id="SVGID_115_" d="M199.4,148c-0.2-0.1-0.5,0-0.7,0.1c-0.1,0.1-0.2,0.2-0.3,0.3c-0.1,0.3,0,0.6,0.1,0.9
					c0.4,0.8,1.3,1.3,2.1,1.5c0.2,0.1,0.5,0.1,0.7,0.1c0.3,0,0.9,0.1,1-0.3c0.1-0.3-0.1-0.6-0.3-0.8c-0.4-0.4-0.8-0.8-1.3-1.1
					c-0.2-0.1-0.4-0.3-0.7-0.4c-0.2-0.1-0.4-0.3-0.7-0.4C199.5,148,199.5,148,199.4,148"/>
			</defs>
			<clipPath id="SVGID_38_">
				<use xlink:href="#SVGID_115_"  style="overflow:visible;"/>
			</clipPath>
			<g style="clip-path:url(#SVGID_38_);">
				<defs>
					<rect id="SVGID_117_" x="-960.3" y="-366.2" width="1680" height="1205"/>
				</defs>
				<clipPath id="SVGID_40_">
					<use xlink:href="#SVGID_117_"  style="overflow:visible;"/>
				</clipPath>
				<rect x="193.4" y="143" style="clip-path:url(#SVGID_40_);fill:#3C2F54;" width="14" height="13"/>
			</g>
		</g>
		<g>
			<defs>
				<path id="SVGID_119_" d="M201.5,145.7c0.9,0.7,1.6,1.9,2.7,2.3c0.8-0.1,1.3-0.8,2.1-1c2.6-0.7,5.1,0.2,7.2-1.2
					c1.4-0.9,4-3.4,0.4-4.4c-2.5-0.7-5-0.8-6.7-0.1C205.3,142.1,203.6,145.5,201.5,145.7"/>
			</defs>
			<clipPath id="SVGID_42_">
				<use xlink:href="#SVGID_119_"  style="overflow:visible;"/>
			</clipPath>
			<g style="clip-path:url(#SVGID_42_);">
				<defs>
					<rect id="SVGID_121_" x="-960.3" y="-366.2" width="1680" height="1205"/>
				</defs>
				<clipPath id="SVGID_44_">
					<use xlink:href="#SVGID_121_"  style="overflow:visible;"/>
				</clipPath>
				<rect x="196.5" y="135.9" style="clip-path:url(#SVGID_44_);fill:#3C2F54;" width="24.1" height="17.1"/>
			</g>
		</g>
		<g>
			<defs>
				<path id="SVGID_123_" d="M204.5,132.9c-0.2-0.1-0.5,0-0.7,0.1c-0.1,0.1-0.2,0.2-0.3,0.3c-0.1,0.3,0,0.6,0.1,0.9
					c0.4,0.8,1.3,1.3,2.1,1.5c0.2,0.1,0.5,0.1,0.7,0.1c0.3,0,0.9,0.1,1-0.3c0.1-0.3-0.1-0.6-0.3-0.8c-0.4-0.4-0.8-0.8-1.3-1.1
					c-0.2-0.1-0.4-0.3-0.7-0.4c-0.2-0.1-0.4-0.3-0.7-0.4C204.6,132.9,204.5,132.9,204.5,132.9"/>
			</defs>
			<clipPath id="SVGID_46_">
				<use xlink:href="#SVGID_123_"  style="overflow:visible;"/>
			</clipPath>
			<g style="clip-path:url(#SVGID_46_);">
				<defs>
					<rect id="SVGID_125_" x="-960.3" y="-366.2" width="1680" height="1205"/>
				</defs>
				<clipPath id="SVGID_48_">
					<use xlink:href="#SVGID_125_"  style="overflow:visible;"/>
				</clipPath>
				<rect x="198.5" y="127.9" style="clip-path:url(#SVGID_48_);fill:#3C2F54;" width="14" height="13"/>
			</g>
		</g>
		<path class="st95" d="M140.3,43.4c0.3-0.4,0.6-0.9,0.7-1.1l0.9-1.5c0.3-0.6,0.6-1.2,1-2l0.1-0.3c0.9-2.2-0.2-4.6-2.3-5.5
			c-2.2-0.9-4.7,2.4-5.6,4.5l0,0.1c0-0.1-0.1-0.1-0.1-0.2l0-0.1c-0.9-2.2-3.4-5.3-5.6-4.4c-2.2,0.9-3.2,3.4-2.3,5.5l0.2,0.5
			c0.3,0.7,0.6,1.3,1,1.9l0.7,1.2c0.2,0.3,0.5,0.8,0.7,1.2l0.2,0.2c0,0,0.6,1,1.2,1.8c2,2.5,2.9,3.9,3.8,3.9c0,0,0.1,0,0.1,0h0
			c0,0,0.1,0,0.1,0c0.9,0,2-1.4,3.8-3.9c0.6-0.8,1.2-1.8,1.2-1.8v0L140.3,43.4z"/>
		<g>
			<defs>
				<path id="SVGID_127_" d="M205.5,131.6c0.9,0.7,1.6,1.9,2.7,2.3c0.8-0.1,1.3-0.8,2.1-1c2.6-0.7,5.1,0.2,7.2-1.2
					c1.4-0.9,4-3.4,0.4-4.4c-2.5-0.7-5-0.8-6.7-0.1C209.4,127.9,207.7,131.3,205.5,131.6"/>
			</defs>
			<clipPath id="SVGID_50_">
				<use xlink:href="#SVGID_127_"  style="overflow:visible;"/>
			</clipPath>
			<g style="clip-path:url(#SVGID_50_);">
				<defs>
					<rect id="SVGID_129_" x="-960.3" y="-366.2" width="1680" height="1205"/>
				</defs>
				<clipPath id="SVGID_52_">
					<use xlink:href="#SVGID_129_"  style="overflow:visible;"/>
				</clipPath>
				<rect x="200.5" y="121.8" style="clip-path:url(#SVGID_52_);fill:#3C2F54;" width="24.1" height="17.1"/>
			</g>
		</g>
		<path class="st92" d="M37.4,50.1c-0.1-0.6-0.7-0.7-1-0.2c-0.7,1.2-1,3.1-1.2,4.4c-0.1,0.9-0.3,1.8-0.3,2.7c0,0-0.3,3.5-0.3,7.4
			c0,0.2,0,0.4,0,0.6c0,0.3-0.5,4.8-2.6,9.2c-0.2,0.4-0.4,0.7-0.5,1c-5,10.3-9.4,22.9-9.8,34.3c-0.6,17.3,6.5,31.4,11.8,47.5
			c9.3,28.4,6.2,57,6.2,86.3c0,10.3,0.1,19.2,5.7,28.2c0.4,0.7,0.9,1.4,1.4,2.1c1.2,0.1,2.4,0.2,3.6,0.2
			c23.1,0.9,43.3-5.1,62.5-14.1c4.1-1.9,7.1-3.5,9.1-4.5c4.7-2.4,9.3-5,13.9-7.6c0,0-9.9-67-13.9-75.3c-4.1-8.3-23.9-11.6-24.1-11.6
			c-2.5-0.3-5.1-0.6-8.1-1.2c-0.6-0.1-1.3-0.2-1.9-0.3c-2.6-0.3-5.2-0.7-7.7-1.4c-6.3-1.7-10.8-5.2-15.6-9.3
			c-4.4-3.8-8.4-8.1-11.6-13C44.9,122.9,41,105.6,41.7,91c0.2-4.8,0.5-9.6,1.1-14.3c0.1-0.7,1-5.8,2.1-7.2c1.7-2,4.5-3,6.5-4.7
			c1-0.8,1.2-1.8,1.6-3c0.6-1.9,1.2-3.7,2.3-5.4c0.9-1.6,2.4-2.8,2.7-4.6c-2.5-1.2-4.9,3.8-5.8,5.2c-0.2,0.3-0.5,0.6-0.8,0.8
			c-1.8-1.3,0.9-11.2,1.4-12.5c0.3-0.8,1.1-3,0.7-4c-0.7-1.4-2,0.6-2.4,1.3c-1.1,1.8-2,3.7-2.9,5.5c-0.3,0.5-1.2,3.1-2.1,2.6
			c-1-0.5,0.1-4.2,0.3-5c0.2-0.7,1.7-3.8,1-4.4c-1.4-1.3-3.4,3.7-3.7,4.4c-0.5,1.1-1.1,4.8-2.6,4.8c-0.1-1.1,0.1-2,0.4-3.1
			c0.2-0.6,1.1-2.6,0.6-3.2c-0.8-1.2-2.5,3.2-2.7,3.9c-0.6,1.9-1,4-1.7,5.8c-0.3,0.7-0.5,0.5-0.5,0.5C37.2,53.1,37.6,51.4,37.4,50.1
			z"/>
		<g>
			<path class="st9" d="M203.9,250c-0.1-0.5-0.2-0.8-0.5-1.1c-0.3-0.2-0.7-0.3-1.1-0.2c-0.4,0-2.4,0.8-2.8,1
				c-0.1,0.1-0.4,0.2-0.7,0.3c-0.5,0.2-1.1,0.4-1.4,0.5l-1.9,1.1c-0.7,0.3-1.4,0.8-2.2,1.2c-0.1,0.1-0.2,0.1-0.3,0.2l-0.1,0.1l0,0
				c-0.2,0.1-0.3,0.5-0.4,0.7c0,0.2,0.1,0.5,0.2,0.7c0.4,0.5,1.1,0.7,1.7,0.7c0,0,0.1,0,0.1,0c0.6,0,1.2-0.2,1.8-0.5
				c0.2-0.1,0.5-0.2,0.7-0.3l0.1-0.1c0.2-0.1,0.3-0.2,0.5-0.3l1.1-0.6c1.2-0.5,3.7-1.4,4.2-1.6c0.4-0.2,0.7-0.5,0.9-0.7
				C203.9,250.9,204,250.5,203.9,250z"/>
			<g>
				<path class="st9" d="M180,233.6c0.2,0.1,0.4,0.1,0.6,0.1c0.6,0,1.2-0.3,1.6-0.9c0.5-0.7,0.6-1.4,0.6-2.2c0-0.1,0-0.2,0-0.3
					c0.1-0.8,0.2-2.1-1-2.4c-1.1-0.2-2.5,0-3.3,0.9c-0.5,0.6-0.6,1.8-0.6,2.5C178.1,232.1,178.7,233.2,180,233.6z"/>
				<path class="st9" d="M187.4,233.5L187.4,233.5c-0.4-0.3-1-0.4-1.7-0.3c-0.9,0-1.4,1-1.7,1.7l-0.1,0.1c-0.4,0.8-0.8,1.7-1.1,2.6
					c-0.3,0.7-0.5,1.5-0.9,2.2c-0.2,0.5-0.5,1.1-1,1.6c-0.2,0.2-0.3,0.3-0.6,0.3c-0.3-0.1-0.5-0.4-0.7-0.6c-1-1.5-1.6-3.1-2.1-4.5
					c-0.1-0.2-0.1-0.4-0.2-0.7c-0.1-0.1-0.1-0.3-0.2-0.5c0-0.1-0.1-0.2-0.1-0.3c0-0.2-0.1-0.3-0.2-0.5c-0.2-0.5-0.5-0.9-0.8-1.2
					c-0.3-0.3-0.8-0.4-1.5-0.4c-0.6,0-1.1,0.2-1.4,0.6c-0.3,0.4-0.5,0.8-0.4,1.4c0,0.2,0.1,0.3,0.1,0.4c0,0.1,0,0.1,0.1,0.2
					c0.6,2.2,1.5,4.5,2.7,7.1c0.4,0.8,0.8,1.6,1.2,2.4c0.2,0.5,0.5,0.9,0.8,1.4c0.1,0.1,0.1,0.2,0.2,0.3c0.2,0.3,0.4,0.7,0.6,0.9
					c0.7,0.7,1.5,1.1,2.4,1.1c0,0,0.1,0,0.1,0c1,0,1.8-0.4,2.5-1c0.7-0.6,1.2-1.4,1.4-2.4l0.6-2.8c0.6-2.2,1.3-4.3,2.1-6.4
					c0.2-0.5,0.4-1.1,0.5-1.7C188.1,234.3,187.9,233.8,187.4,233.5z"/>
			</g>
			<g>
				<path class="st9" d="M199.8,240.1c0.1,0,0.3,0,0.4,0c0.8-0.1,1.4-0.6,2-1.1c0.1-0.1,0.1-0.1,0.2-0.2c0.6-0.5,1.6-1.4,1-2.4
					c-0.6-0.9-1.8-1.8-2.9-1.7c-0.8,0.1-1.8,0.9-2.1,1.3c-0.5,0.7-0.9,1.8-0.3,3.1C198.4,239.7,199,240.1,199.8,240.1z"/>
				<path class="st9" d="M203.9,243.8c-0.1-0.5-0.4-0.9-0.9-1.4c-0.7-0.6-1.7-0.3-2.4,0l-0.2,0c-0.9,0.3-1.8,0.7-2.6,1.1
					c-0.7,0.3-1.4,0.7-2.2,1c-0.5,0.2-1.2,0.4-1.8,0.4c-0.3,0-0.5,0-0.6-0.3c-0.1-0.3-0.1-0.6-0.1-0.9c0.3-1.8,1.1-3.4,1.7-4.7
					c0.1-0.2,0.2-0.4,0.3-0.6c0.1-0.1,0.1-0.3,0.2-0.4c0-0.1,0.1-0.2,0.2-0.3c0.1-0.1,0.2-0.3,0.2-0.5c0.2-0.6,0.3-1,0.3-1.4
					c0-0.4-0.3-0.8-0.8-1.3c-0.4-0.4-0.9-0.6-1.4-0.6c-0.5,0-0.9,0.3-1.3,0.7c-0.1,0.1-0.2,0.2-0.2,0.4c0,0.1-0.1,0.1-0.1,0.2
					c-1.1,2-2.2,4.2-3.2,6.9c-0.3,0.8-0.6,1.7-0.9,2.5c-0.2,0.5-0.3,1-0.5,1.5c0,0.1-0.1,0.2-0.1,0.3c-0.1,0.4-0.2,0.8-0.2,1.1
					c0,1.1,0.4,1.9,1,2.5c0.7,0.6,1.5,1,2.5,1c0.1,0,0.2,0,0.2,0c0.8,0,1.6-0.2,2.4-0.7l2.4-1.5c1.9-1.1,3.9-2.1,6-3
					c0.5-0.2,1-0.5,1.5-0.9C203.9,244.8,204,244.3,203.9,243.8z"/>
			</g>
			<g>
				<path class="st9" d="M161,240.4c0.4,0,0.7-0.1,1.1-0.2c0.8-0.3,1.2-1.1,1.2-2c-0.1-0.8-0.5-1.5-1-2.1c-0.1-0.1-0.1-0.1-0.2-0.2
					c-0.5-0.6-1.2-1.7-2.3-1.2c-1,0.5-1.9,1.6-1.9,2.8c0,0.8,0.7,1.8,1.2,2.2C159.6,240,160.2,240.4,161,240.4z"/>
				<path class="st9" d="M166.4,252.5l-1.9-0.4c-1.6-0.4-3.2-0.9-4.6-1.5c0,0-0.1,0-0.4-0.2c-0.3-0.1-0.5-0.2-0.7-0.2
					c-0.4,0-0.6,0.2-0.8,0.5c-0.2,0.3-0.3,0.7-0.2,1.1c0,0.4,0.4,0.8,1.1,1.2c0.4,0.2,1.1,0.5,1.9,0.8l0.9,0.3l0.2,0.1
					c0.2,0,0.3,0.1,0.5,0.1c0.9,0.3,1.9,0.6,2.8,0.7c0.2,0,0.3,0,0.5,0.1c0.4,0.1,0.8,0.1,1.2,0.1l0.1,0c0.2,0,0.3,0,0.5,0
					c0.3,0,0.6,0,0.8-0.1c0.3-0.1,0.4-0.3,0.4-0.7c-0.1-0.4-0.3-0.7-0.5-1C167.6,253,167,252.6,166.4,252.5z"/>
				<path class="st9" d="M174.2,245.1l-1.5-2.4c-1.1-1.9-2.1-3.9-3-6c-0.2-0.5-0.5-1-0.9-1.5c-0.4-0.5-0.8-0.6-1.4-0.5
					c-0.5,0.1-0.9,0.4-1.4,0.9c-0.6,0.7-0.3,1.7,0,2.4l0,0.2c0.3,0.9,0.7,1.8,1.1,2.6c0.3,0.7,0.7,1.4,1,2.2
					c0.2,0.5,0.4,1.2,0.4,1.8c0,0.3,0,0.5-0.3,0.6c-0.3,0.1-0.6,0.1-0.9,0.1c-1.8-0.3-3.4-1.1-4.7-1.7c-0.2-0.1-0.4-0.2-0.6-0.3
					c-0.1-0.1-0.3-0.1-0.4-0.2c-0.1,0-0.2-0.1-0.3-0.2c-0.1-0.1-0.3-0.2-0.5-0.2c-0.6-0.2-1-0.3-1.4-0.3c-0.4,0-0.8,0.3-1.3,0.8
					c-0.4,0.4-0.6,0.9-0.6,1.4c0,0.5,0.3,0.9,0.7,1.3c0.1,0.1,0.2,0.2,0.4,0.2c0.1,0,0.1,0.1,0.2,0.1c2,1.1,4.2,2.2,6.9,3.2
					c0.8,0.3,1.7,0.6,2.5,0.9c0.5,0.2,1,0.3,1.5,0.5c0.1,0,0.2,0.1,0.3,0.1c0.4,0.1,0.8,0.2,1.1,0.2c1.1,0,1.9-0.4,2.5-1
					c0.6-0.7,1-1.5,1-2.5C175,246.8,174.7,245.9,174.2,245.1z"/>
			</g>
		</g>
	</g>
</g>
</svg>
